<svg width="90" height="90" viewBox="0 0 90 90" fill="none" xmlns="http://www.w3.org/2000/svg">
<circle cx="45" cy="45" r="45" fill="#FFE8E6"/>
<path fill-rule="evenodd" clip-rule="evenodd" d="M48.6899 36.8268C49.4405 35.0115 50.9511 33.2816 53.0332 32.0795C56.5461 30.0513 60.5471 30.1833 62.7428 32.1973C62.0865 35.04 60.4297 37.9762 58.0835 39.3308C54.6816 41.2949 50.8984 39.3171 48.6899 36.8268Z" fill="#FF7E78"/>
<path fill-rule="evenodd" clip-rule="evenodd" d="M56.0162 34.0244C56.0162 38.5936 53.4053 42.5591 49.5796 44.539C49.6996 45.3358 49.7618 46.1513 49.7618 46.9812C49.7618 49.9601 48.9605 52.7537 47.5596 55.1624C51.3748 53.7204 55.8952 55.9995 57.7701 60.3703C59.6899 64.8459 58.109 69.8198 54.239 71.4798C50.369 73.1399 45.6755 70.8575 43.7556 66.382C42.8325 64.23 42.7188 61.9628 43.2797 60.0042C42.14 60.8722 40.8832 61.597 39.5367 62.1513C39.2306 63.6232 38.6686 65.0026 37.8988 66.242V72.3328H26.9009H26.1946V72.314C19.3981 71.951 14 66.3811 14 59.5633C14 56.3733 15.1818 53.4565 17.1356 51.2184C16.772 49.8667 16.5781 48.4463 16.5781 46.9812C16.5781 38.1086 23.6866 30.8794 32.5741 30.5688C34.0685 25.7058 38.6352 22.1671 44.0368 22.1671C50.6529 22.1671 56.0162 27.4758 56.0162 34.0244Z" fill="#0E305B"/>
<path fill-rule="evenodd" clip-rule="evenodd" d="M42.3723 40.1246H74.4403L73.5721 48.8554C73.0367 54.2392 68.1878 58.1358 62.815 57.5L46.7518 55.5991C44.1571 55.292 42.2124 53.0763 42.2447 50.4636L42.3723 40.1246Z" fill="#FFACA8"/>
<path fill-rule="evenodd" clip-rule="evenodd" d="M40.8178 34.8578C41.5007 33.7643 42.6578 33.0794 43.9412 32.957C46.1549 32.746 49.5286 32.4416 50.5717 32.4416C51.2364 32.4416 52.8105 32.5652 54.4217 32.7095C56.9192 32.9331 58.6856 35.234 58.2963 37.711L55.3363 56.5441C55.3363 56.5441 48.5492 57.1311 49.5221 61.9956C50.495 66.8602 52.9273 66.8602 56.5122 72.3324H29.052C29.052 72.3324 28.7965 63.2787 32.2564 52.7436C34.8167 44.9476 38.8786 37.9629 40.8178 34.8578Z" fill="#FFACA8"/>
<path fill-rule="evenodd" clip-rule="evenodd" d="M72.9665 42.6565C74.0896 42.6565 75.0001 41.7676 75.0001 40.6711C75.0001 39.5746 74.0896 38.6857 72.9665 38.6857C71.8434 38.6857 70.9329 39.5746 70.9329 40.6711C70.9329 41.7676 71.8434 42.6565 72.9665 42.6565Z" fill="#FFACA8"/>
<path fill-rule="evenodd" clip-rule="evenodd" d="M69.4535 42.5982C70.5766 42.5982 71.4871 41.6998 71.4871 40.5916C71.4871 39.4834 70.5766 38.585 69.4535 38.585C68.3304 38.585 67.4199 39.4834 67.4199 40.5916C67.4199 41.6998 68.3304 42.5982 69.4535 42.5982Z" fill="#FFACA8"/>
<mask id="mask0_1_4654" style="mask-type:alpha" maskUnits="userSpaceOnUse" x="52" y="40" width="23" height="18">
<path fill-rule="evenodd" clip-rule="evenodd" d="M55.3596 44.4832L74.4403 40.1246L73.572 48.8554C73.077 53.8333 68.8943 57.5399 64.0194 57.5678C63.2181 57.5724 62.4358 57.3575 61.6857 57.0757L55.9562 54.9229C55.5599 54.774 55.139 54.696 54.7372 54.5629C53.1434 54.0347 52.6187 52.2907 52.481 50.4106C52.4068 49.3978 52.741 48.4059 53.3048 47.5612L55.3596 44.4832Z" fill="#FFACA8"/>
</mask>
<g mask="url(#mask0_1_4654)">
<path fill-rule="evenodd" clip-rule="evenodd" d="M54.5361 49.4692C54.5361 46.9839 56.5508 44.9692 59.0361 44.9692H74.3635C76.8488 44.9692 78.8635 46.9839 78.8635 49.4692V49.7727C78.8635 52.2579 76.8488 54.2727 74.3635 54.2727H59.0361C56.5508 54.2727 54.5361 52.2579 54.5361 49.7727V49.4692Z" fill="white"/>
<path fill-rule="evenodd" clip-rule="evenodd" d="M53.6145 50.8067C53.6145 50.6052 53.7778 50.4418 53.9793 50.4418H73.5225C73.724 50.4418 73.8874 50.6052 73.8874 50.8067V50.8067C73.8874 51.0082 73.724 51.1715 73.5225 51.1715H53.9793C53.7778 51.1715 53.6145 51.0082 53.6145 50.8067V50.8067Z" fill="#FFACA8"/>
</g>
<path fill-rule="evenodd" clip-rule="evenodd" d="M45.0887 35.336C43.2449 38.1054 39.768 40.5873 36.1207 39.1189C33.6052 38.1061 31.5532 35.4335 30.5067 32.7141C32.4042 30.4174 36.3539 29.7301 40.1203 31.2465C42.3526 32.1453 44.0916 33.6455 45.0887 35.336V35.336Z" fill="#FFACA8"/>
<path fill-rule="evenodd" clip-rule="evenodd" d="M42.1546 35.5849C41.3751 34.6716 40.1267 33.7957 38.6028 33.18C36.032 32.1413 33.5105 32.1799 32.4499 33.1722C33.3404 34.5989 34.8827 36.0793 36.5999 36.7731C39.0895 37.779 41.1652 36.8156 42.1546 35.5849Z" fill="#FF7E78"/>
<path fill-rule="evenodd" clip-rule="evenodd" d="M70.1946 40.6851C70.1946 41.039 69.9047 41.3259 69.5472 41.3259C69.1897 41.3259 68.8998 41.039 68.8998 40.6851C68.8998 40.3312 69.1897 40.0443 69.5472 40.0443C69.9047 40.0443 70.1946 40.3312 70.1946 40.6851ZM73.8918 40.6851C73.8918 41.039 73.602 41.3259 73.2444 41.3259C72.8869 41.3259 72.5971 41.039 72.5971 40.6851C72.5971 40.3312 72.8869 40.0443 73.2444 40.0443C73.602 40.0443 73.8918 40.3312 73.8918 40.6851Z" fill="#FF7E78"/>
<path fill-rule="evenodd" clip-rule="evenodd" d="M46.6768 36.5783C46.7371 38.2015 47.958 39.4971 49.4553 39.4971C50.9526 39.4971 52.1734 38.2015 52.2337 36.5783H46.6768ZM53.5557 36.5783C53.616 38.2014 54.8368 39.4971 56.3341 39.4971C57.8314 39.4971 59.0523 38.2014 59.1126 36.5783H53.5557Z" fill="#0E305B"/>
<path d="M46.6768 36.5783L45.9274 36.6062L45.8985 35.8283H46.6768V36.5783ZM52.2337 36.5783V35.8283H53.0121L52.9832 36.6062L52.2337 36.5783ZM53.5557 36.5783L52.8062 36.6062L52.7773 35.8283H53.5557V36.5783ZM59.1126 36.5783V35.8283H59.8909L59.862 36.6062L59.1126 36.5783ZM47.4263 36.5505C47.474 37.834 48.4221 38.7471 49.4553 38.7471V40.2471C47.494 40.2471 46.0003 38.5689 45.9274 36.6062L47.4263 36.5505ZM49.4553 38.7471C50.4885 38.7471 51.4366 37.834 51.4843 36.5505L52.9832 36.6062C52.9103 38.5689 51.4166 40.2471 49.4553 40.2471V38.7471ZM52.2337 37.3283H46.6768V35.8283H52.2337V37.3283ZM54.3051 36.5505C54.3528 37.834 55.3009 38.7471 56.3341 38.7471V40.2471C54.3728 40.2471 52.8791 38.5689 52.8062 36.6062L54.3051 36.5505ZM56.3341 38.7471C57.3673 38.7471 58.3154 37.834 58.3631 36.5505L59.862 36.6062C59.7891 38.5689 58.2954 40.2471 56.3341 40.2471V38.7471ZM59.1126 37.3283H53.5557V35.8283H59.1126V37.3283Z" fill="#0E305B"/>
<path fill-rule="evenodd" clip-rule="evenodd" d="M46.3504 32.7856L60.7841 14.8017C61.0504 14.47 61.5759 14.7677 61.4283 15.1666L54.9071 32.7856H46.3504Z" fill="#8F7AE2"/>
<path d="M56.3507 36.6999L55.6192 38.1593H57.0823L56.3507 39.6187" stroke="white" stroke-opacity="0.1" stroke-width="0.833333"/>
<path d="M49.7672 36.6999L49.0357 38.1593H50.4987L49.7672 39.6187" stroke="white" stroke-opacity="0.1" stroke-width="0.833333"/>
</svg>
