<svg width="20" height="20" viewBox="0 0 13 13" fill="none" xmlns="http://www.w3.org/2000/svg">
  <path d="M12.9787 1.88926C12.9787 1.3844 12.782 0.909719 12.425 0.552716C11.6881 -0.184184 10.489 -0.184293 9.75192 0.552716L7.93114 2.3735L7.10447 1.54682C6.96364 1.40603 6.73542 1.40603 6.59456 1.54682L5.51295 2.62843C5.37217 2.76922 5.37217 2.99751 5.51295 3.13834L6.33963 3.96501L1.12469 9.17995C1.0851 9.21954 1.05529 9.26778 1.03758 9.32088L0.703979 10.3217L0.403616 10.6221C-0.134521 11.1603 -0.134557 12.0359 0.403616 12.5741C0.941788 13.1123 1.81746 13.1123 2.35563 12.5741L2.65599 12.2738L3.65684 11.9402C3.70995 11.9225 3.75819 11.8927 3.79778 11.8531L9.01275 6.6381L9.83942 7.46477C9.98025 7.60556 10.2085 7.60556 10.3493 7.46477L11.4309 6.38316C11.5717 6.24237 11.5717 6.01408 11.4309 5.87326L10.6043 5.04658L12.425 3.2258C12.782 2.8688 12.9787 2.39415 12.9787 1.88926ZM6.33963 8.29141H3.03297L6.84953 4.47488L8.50284 6.12819L6.33963 8.29141ZM10.0944 6.69993L6.2778 2.88337L6.8495 2.31163L10.666 6.12819L10.0944 6.69993ZM11.9151 2.71593L10.0944 4.53671L8.44101 2.88337L10.2618 1.06259C10.7177 0.60676 11.4594 0.606724 11.9151 1.06259C12.3687 1.49775 12.3687 2.28077 11.9151 2.71593Z" fill="#FFF9F8"/>
  <path d="M11.9151 2.71593L10.0944 4.53671L8.44101 2.88337L10.2618 1.06259C10.7177 0.60676 11.4594 0.606724 11.9151 1.06259C12.3687 1.49775 12.3687 2.28077 11.9151 2.71593Z" fill="#FFF9F8"/>
  <path d="M10.0944 6.69993L6.2778 2.88337L6.8495 2.31163L10.666 6.12819L10.0944 6.69993Z" fill="#FFF9F8"/>
</svg>  
