<svg width="66" height="61" viewBox="0 0 66 61" fill="none" xmlns="http://www.w3.org/2000/svg">
<g clip-path="url(#clip0_9217_11698)">
<mask id="mask0_9217_11698" style="mask-type:alpha" maskUnits="userSpaceOnUse" x="6" y="1" width="55" height="46">
<rect x="6.08203" y="1.32178" width="54.2466" height="44.7945" fill="#C4C4C4"/>
</mask>
<g mask="url(#mask0_9217_11698)">
<path fill-rule="evenodd" clip-rule="evenodd" d="M36.6923 21.5711C37.3623 19.9638 38.7063 18.4303 40.556 17.3624C43.6767 15.5606 47.2253 15.6681 49.1685 17.4441C48.5799 19.9598 47.1034 22.5605 45.019 23.7639C41.9969 25.5087 38.6457 23.7684 36.6923 21.5711Z" fill="#FF7E78"/>
<path fill-rule="evenodd" clip-rule="evenodd" d="M37.5111 28.4112C40.8894 26.6523 43.1951 23.1295 43.1951 19.0704C43.1951 13.2528 38.4588 8.53662 32.6163 8.53662C27.8462 8.53662 23.8135 11.6803 22.4937 16.0005C14.6455 16.2765 8.36814 22.6987 8.36814 30.5809C8.36814 31.8825 8.5393 33.1442 8.86045 34.3451C7.13496 36.3334 6.09131 38.9247 6.09131 41.7586C6.09131 47.8155 10.8583 52.7636 16.8602 53.086V53.1027H17.4628C17.4698 53.1027 17.4768 53.1028 17.4839 53.1028C17.4909 53.1028 17.498 53.1027 17.505 53.1027H27.196V47.6917C27.8758 46.5907 28.372 45.3654 28.6423 44.0578C33.9442 41.8623 37.672 36.6551 37.672 30.5809C37.672 29.8436 37.6171 29.1191 37.5111 28.4112Z" fill="#0E305B"/>
<path fill-rule="evenodd" clip-rule="evenodd" d="M29.7695 19.8181C30.375 18.8424 31.4044 18.2306 32.5474 18.121C34.5026 17.9336 37.4686 17.6646 38.3873 17.6646C38.9718 17.6646 40.3527 17.7734 41.7693 17.9009C43.9855 18.1004 45.5531 20.1416 45.2096 22.3402L44.8737 24.4899H56.4366C56.6512 23.7516 57.3432 23.2111 58.1637 23.2111C59.1555 23.2111 59.9596 24.0008 59.9596 24.9749C59.9596 25.5344 59.6944 26.033 59.2808 26.3561L58.6997 32.2345C58.2265 37.0219 53.9139 40.4871 49.1369 39.9184L42.6098 39.1414L44.7379 48.3363C44.901 49.0409 44.8623 49.7365 44.6644 50.3693C43.0067 50.911 41.5331 51.8617 40.3619 53.1027H19.3836C19.3836 53.1027 19.158 45.0596 22.2134 35.7004C24.4724 28.7805 28.0553 22.58 29.7695 19.8181Z" fill="#FFACA8"/>
<mask id="mask1_9217_11698" style="mask-type:luminance" maskUnits="userSpaceOnUse" x="19" y="17" width="41" height="37">
<path fill-rule="evenodd" clip-rule="evenodd" d="M29.7695 19.8181C30.375 18.8424 31.4044 18.2306 32.5474 18.121C34.5026 17.9336 37.4686 17.6646 38.3873 17.6646C38.9718 17.6646 40.3527 17.7734 41.7693 17.9009C43.9855 18.1004 45.5531 20.1416 45.2096 22.3402L44.8737 24.4899H56.4366C56.6512 23.7516 57.3432 23.2111 58.1637 23.2111C59.1555 23.2111 59.9596 24.0008 59.9596 24.9749C59.9596 25.5344 59.6944 26.033 59.2808 26.3561L58.6997 32.2345C58.2265 37.0219 53.9139 40.4871 49.1369 39.9184L42.6098 39.1414L44.7379 48.3363C44.901 49.0409 44.8623 49.7365 44.6644 50.3693C43.0067 50.911 41.5331 51.8617 40.3619 53.1027H19.3836C19.3836 53.1027 19.158 45.0596 22.2134 35.7004C24.4724 28.7805 28.0553 22.58 29.7695 19.8181Z" fill="white"/>
</mask>
<g mask="url(#mask1_9217_11698)">
<path fill-rule="evenodd" clip-rule="evenodd" d="M41.8882 32.6834C41.8882 30.5353 43.6295 28.7939 45.7776 28.7939H59.4819C61.63 28.7939 63.3713 30.5353 63.3713 32.6834V33.1695C63.3713 35.3176 61.63 37.0589 59.4819 37.0589H45.7776C43.6295 37.0589 41.8882 35.3176 41.8882 33.1695V32.6834Z" fill="white"/>
<path fill-rule="evenodd" clip-rule="evenodd" d="M41.0742 33.9799C41.0742 33.8009 41.2193 33.6558 41.3983 33.6558H58.6527C58.8317 33.6558 58.9768 33.8009 58.9768 33.9799C58.9768 34.1589 58.8317 34.304 58.6527 34.304H41.3983C41.2193 34.304 41.0742 34.1589 41.0742 33.9799Z" fill="#FFACA8"/>
<path fill-rule="evenodd" clip-rule="evenodd" d="M45.7946 55.6906H74.1132L59.8536 42.916C58.5417 41.7407 56.9003 40.9972 55.1517 40.7862L42.3076 39.2359C38.2328 38.7441 35.6507 43.4844 38.274 46.6411L45.7946 55.6906Z" fill="#0E305B"/>
</g>
<path fill-rule="evenodd" clip-rule="evenodd" d="M33.5567 20.2503C31.9323 22.7027 28.863 24.8964 25.6339 23.5854C23.4069 22.6812 21.586 20.3058 20.6542 17.8911C22.3271 15.8581 25.8187 15.2576 29.1531 16.6113C31.1295 17.4137 32.6709 18.7485 33.5567 20.2503Z" fill="#FFACA8"/>
<path fill-rule="evenodd" clip-rule="evenodd" d="M30.9779 20.4594C30.2843 19.6507 29.1746 18.8744 27.8209 18.3274C25.5369 17.4046 23.2988 17.4341 22.3592 18.3093C23.1523 19.5719 24.524 20.8831 26.0494 21.4994C28.2612 22.393 30.1019 21.5453 30.9779 20.4594Z" fill="#FF7E78"/>
<path fill-rule="evenodd" clip-rule="evenodd" d="M46.5277 24.4181C46.6298 24.1125 46.685 23.7856 46.685 23.4458C46.685 21.7453 45.3006 20.3667 43.5928 20.3667C41.8849 20.3667 40.5005 21.7453 40.5005 23.4458C40.5005 23.7856 40.5558 24.1125 40.6578 24.4181H46.5277ZM34.1475 24.4181C34.0455 24.1125 33.9902 23.7856 33.9902 23.4459C33.9902 21.7453 35.3747 20.3667 37.0825 20.3667C38.7903 20.3667 40.1748 21.7453 40.1748 23.4459C40.1748 23.7856 40.1195 24.1125 40.0175 24.4181H34.1475Z" fill="white"/>
<mask id="mask2_9217_11698" style="mask-type:luminance" maskUnits="userSpaceOnUse" x="33" y="20" width="14" height="5">
<path fill-rule="evenodd" clip-rule="evenodd" d="M46.5277 24.4181C46.6298 24.1125 46.685 23.7856 46.685 23.4458C46.685 21.7453 45.3006 20.3667 43.5928 20.3667C41.8849 20.3667 40.5005 21.7453 40.5005 23.4458C40.5005 23.7856 40.5558 24.1125 40.6578 24.4181H46.5277ZM34.1475 24.4181C34.0455 24.1125 33.9902 23.7856 33.9902 23.4459C33.9902 21.7453 35.3747 20.3667 37.0825 20.3667C38.7903 20.3667 40.1748 21.7453 40.1748 23.4459C40.1748 23.7856 40.1195 24.1125 40.0175 24.4181H34.1475Z" fill="white"/>
</mask>
<g mask="url(#mask2_9217_11698)">
<path fill-rule="evenodd" clip-rule="evenodd" d="M40.5081 22.5814C40.5081 23.6555 39.6337 24.5261 38.5551 24.5261C37.4764 24.5261 36.6021 23.6555 36.6021 22.5814C36.6021 22.336 36.6477 22.1012 36.731 21.885C36.8758 22.109 37.1284 22.2573 37.4158 22.2573C37.8652 22.2573 38.2296 21.8945 38.2296 21.447C38.2296 21.1608 38.0806 20.9093 37.8556 20.7651C38.0728 20.6822 38.3086 20.6367 38.5551 20.6367C39.6337 20.6367 40.5081 21.5074 40.5081 22.5814Z" fill="#0E305B"/>
<path fill-rule="evenodd" clip-rule="evenodd" d="M46.8557 22.5814C46.8557 23.6555 45.9813 24.5261 44.9027 24.5261C43.8241 24.5261 42.9497 23.6555 42.9497 22.5814C42.9497 22.336 42.9954 22.1012 43.0787 21.885C43.2235 22.109 43.4761 22.2573 43.7635 22.2573C44.2129 22.2573 44.5772 21.8945 44.5772 21.447C44.5772 21.1608 44.4282 20.9093 44.2033 20.7651C44.4204 20.6822 44.6562 20.6367 44.9027 20.6367C45.9813 20.6367 46.8557 21.5074 46.8557 22.5814Z" fill="#0E305B"/>
</g>
<path fill-rule="evenodd" clip-rule="evenodd" d="M34.6597 17.9697L47.4337 1.9583C47.6631 1.67075 48.1182 1.92713 47.9912 2.27235L42.2159 17.9697H34.6597Z" fill="#8F7AE2"/>
<path fill-rule="evenodd" clip-rule="evenodd" d="M55.061 26.6869C56.0528 26.6869 56.8568 25.8888 56.8568 24.9042C56.8568 23.9197 56.0528 23.1216 55.061 23.1216C54.0692 23.1216 53.2651 23.9197 53.2651 24.9042C53.2651 25.8888 54.0692 26.6869 55.061 26.6869Z" fill="#FFACA8"/>
<path fill-rule="evenodd" clip-rule="evenodd" d="M55.7157 24.9872C55.7157 25.3016 55.4597 25.5565 55.144 25.5565C54.8282 25.5565 54.5723 25.3016 54.5723 24.9872C54.5723 24.6728 54.8282 24.418 55.144 24.418C55.4597 24.418 55.7157 24.6728 55.7157 24.9872ZM58.9806 24.9872C58.9806 25.3016 58.7246 25.5565 58.4089 25.5565C58.0931 25.5565 57.8372 25.3016 57.8372 24.9872C57.8372 24.6728 58.0931 24.418 58.4089 24.418C58.7246 24.418 58.9806 24.6728 58.9806 24.9872Z" fill="#FF7E78"/>
</g>
<g filter="url(#filter0_d_9217_11698)">
<line x1="6.08168" y1="46.5097" x2="60.3282" y2="46.1356" stroke="#0E305B" stroke-opacity="0.1" stroke-width="0.10274"/>
</g>
<rect x="6.08203" y="46.1162" width="54.2463" height="14.3836" fill="white"/>
<path fill-rule="evenodd" clip-rule="evenodd" d="M20.2617 52.4663V57.4697C20.2617 58.442 19.3244 59.1393 18.3932 58.8598L15.7739 58.0739L13.5317 58.8028C12.5939 59.1077 11.6316 58.4086 11.6316 57.4225V52.4663H17.1396H20.2617Z" fill="#8F7AE2"/>
<path d="M20.2614 47.1235C20.2614 44.7404 18.3294 42.8085 15.9463 42.8085C13.5631 42.8085 11.6312 44.7404 11.6312 47.1235L20.2614 47.1235ZM11.6312 48.8828L11.6312 53.1978L20.2614 53.1978L20.2614 48.8828L11.6312 48.8828ZM11.6312 47.1235L11.6312 48.8828L20.2614 48.8828L20.2614 47.1235L11.6312 47.1235Z" fill="url(#paint0_linear_9217_11698)"/>
<path fill-rule="evenodd" clip-rule="evenodd" d="M49.8501 52.4663V57.4697C49.8501 58.442 48.9128 59.1393 47.9816 58.8598L45.3622 58.0739L43.1201 58.8028C42.1823 59.1077 41.22 58.4086 41.22 57.4225V52.4663H46.728H49.8501Z" fill="#8F7AE2"/>
<path d="M49.8502 47.1235C49.8502 44.7404 47.9183 42.8085 45.5352 42.8085C43.152 42.8085 41.2201 44.7404 41.2201 47.1235L49.8502 47.1235ZM41.2201 48.8828L41.2201 53.1978L49.8502 53.1978L49.8502 48.8828L41.2201 48.8828ZM41.2201 47.1235L41.2201 48.8828L49.8502 48.8828L49.8502 47.1235L41.2201 47.1235Z" fill="url(#paint1_linear_9217_11698)"/>
</g>
<defs>
<filter id="filter0_d_9217_11698" x="1.97195" y="40.7415" width="62.4662" height="8.69623" filterUnits="userSpaceOnUse" color-interpolation-filters="sRGB">
<feFlood flood-opacity="0" result="BackgroundImageFix"/>
<feColorMatrix in="SourceAlpha" type="matrix" values="0 0 0 0 0 0 0 0 0 0 0 0 0 0 0 0 0 0 127 0" result="hardAlpha"/>
<feOffset dy="-1.23288"/>
<feGaussianBlur stdDeviation="2.05479"/>
<feColorMatrix type="matrix" values="0 0 0 0 0.054902 0 0 0 0 0.188235 0 0 0 0 0.356863 0 0 0 0.1 0"/>
<feBlend mode="normal" in2="BackgroundImageFix" result="effect1_dropShadow_9217_11698"/>
<feBlend mode="normal" in="SourceGraphic" in2="effect1_dropShadow_9217_11698" result="shape"/>
</filter>
<linearGradient id="paint0_linear_9217_11698" x1="20.7053" y1="53.1401" x2="20.7053" y2="41.5386" gradientUnits="userSpaceOnUse">
<stop stop-color="#FFACA8"/>
<stop offset="1" stop-color="#FF8E8B"/>
</linearGradient>
<linearGradient id="paint1_linear_9217_11698" x1="50.2942" y1="53.1401" x2="50.2942" y2="41.5386" gradientUnits="userSpaceOnUse">
<stop stop-color="#FFACA8"/>
<stop offset="1" stop-color="#FF8E8B"/>
</linearGradient>
<clipPath id="clip0_9217_11698">
<rect width="64.5205" height="60" fill="white" transform="translate(0.739746 0.5)"/>
</clipPath>
</defs>
</svg>
