<svg width="64" height="60" viewBox="0 0 64 60" fill="none" xmlns="http://www.w3.org/2000/svg">
<path fill-rule="evenodd" clip-rule="evenodd" d="M10.809 47.0973C12.0393 46.4609 13.4363 46.1014 14.9172 46.1014C18.3518 46.1014 21.3345 48.0349 22.8352 50.8721H43.6603C45.2274 49.7462 47.1498 49.0831 49.2271 49.0831C49.6732 49.0831 50.1122 49.1137 50.5421 49.1729C50.9958 46.5888 52.6827 44.429 54.974 43.3218C52.0358 39.3978 47.3481 36.858 42.0668 36.858C40.4205 36.858 38.8318 37.1048 37.3359 37.5634C35.9804 30.0416 29.3974 24.3349 21.4808 24.3349C12.5831 24.3349 5.37012 31.5437 5.37012 40.4362C5.37012 41.3686 5.44942 42.2825 5.60165 43.1715C7.94857 43.4668 9.90969 45.0006 10.809 47.0973Z" fill="#FFE09A"/>
<path fill-rule="evenodd" clip-rule="evenodd" d="M5.08789 26.1239C6.74105 26.1325 8.07854 27.4641 8.07856 29.1056H8.07863C8.07865 27.4641 9.41613 26.1325 11.0693 26.1239C9.41612 26.1154 8.07863 24.7837 8.07863 23.1423V23.1422H8.07856C8.07856 23.1422 8.07856 23.1422 8.07856 23.1423C8.07856 24.7837 6.74106 26.1154 5.08789 26.1239Z" fill="#FFACA8"/>
<path fill-rule="evenodd" clip-rule="evenodd" d="M52.0249 13.8988C53.6781 13.9073 55.0155 15.239 55.0155 16.8804H55.0156C55.0156 15.239 56.3531 13.9073 58.0063 13.8988C56.3531 13.8902 55.0156 12.5586 55.0156 10.9171V10.917H55.0155C55.0155 10.917 55.0155 10.9171 55.0155 10.9171C55.0155 12.5586 53.6781 13.8902 52.0249 13.8988Z" fill="#FFACA8"/>
<path fill-rule="evenodd" clip-rule="evenodd" d="M39.712 22.9861C39.7825 21.3834 40.46 19.6333 41.723 18.1281C43.8539 15.5886 46.9609 14.5694 49.2067 15.4994C49.4948 17.8638 49.041 20.5802 47.6177 22.2764C45.5541 24.7356 42.1003 24.2779 39.712 22.9861Z" fill="#FF7E78"/>
<path fill-rule="evenodd" clip-rule="evenodd" d="M39.6609 28.1571C42.7815 26.539 44.9113 23.2981 44.9113 19.5639C44.9113 14.2119 40.5364 9.87329 35.1397 9.87329C30.7335 9.87329 27.0085 12.7654 25.7895 16.7398C18.5401 16.9936 12.7417 22.9018 12.7417 30.153C12.7417 31.3504 12.8998 32.5112 13.1964 33.616C11.6026 35.4451 10.6387 37.8289 10.6387 40.436C10.6387 46.0079 15.0419 50.5599 20.5857 50.8566V50.8719H21.1279C21.1393 50.872 21.1506 50.872 21.1619 50.872C21.1733 50.872 21.1846 50.872 21.196 50.8719H30.1328V45.8943C30.7608 44.8814 31.2192 43.7541 31.4689 42.5511C36.3662 40.5313 39.8095 35.741 39.8095 30.153C39.8095 29.4748 39.7588 28.8083 39.6609 28.1571Z" fill="#0E305B"/>
<path fill-rule="evenodd" clip-rule="evenodd" d="M32.833 19.7381C33.1948 19.1702 33.7957 18.8144 34.4659 18.7493C36.1907 18.5816 39.5184 18.2706 40.4696 18.2706C41.2001 18.2706 43.2775 18.454 44.9609 18.6151C46.2631 18.7397 47.1846 19.9379 46.9819 21.2303L46.4612 24.5496H57.1422C57.3404 23.8704 57.9796 23.3732 58.7375 23.3732C59.6537 23.3732 60.3963 24.0996 60.3963 24.9958C60.3963 25.5105 60.1513 25.9692 59.7692 26.2665L58.9443 34.5782C58.6653 37.3887 56.1338 39.423 53.3291 39.0904L44.3699 38.0282L46.7035 48.07C47.0365 49.5026 45.9488 50.8721 44.478 50.8721H22.916C22.916 50.8721 22.7077 43.4728 25.5299 34.8628C27.7718 28.0231 31.4253 21.9474 32.833 19.7381Z" fill="#FFACA8"/>
<mask id="mask0_762_668" style="mask-type:alpha" maskUnits="userSpaceOnUse" x="22" y="18" width="39" height="33">
<path fill-rule="evenodd" clip-rule="evenodd" d="M32.3248 20.5498C32.7926 19.7901 33.0266 19.4102 33.4239 19.1368C33.4785 19.0992 33.5454 19.0576 33.6032 19.0253C34.0241 18.7897 34.4888 18.7458 35.4181 18.658C37.2108 18.4886 39.6732 18.2706 40.4696 18.2706C40.8995 18.2706 41.7957 18.3341 42.8036 18.4192C44.8004 18.5878 45.7988 18.6721 46.4004 19.321C46.4845 19.4116 46.5638 19.5126 46.6319 19.6158C47.1193 20.3543 46.9616 21.3593 46.6463 23.3693L46.4612 24.5496H57.1422C57.3404 23.8704 57.9796 23.3732 58.7375 23.3732C59.6537 23.3732 60.3963 24.0996 60.3963 24.9958C60.3963 25.5105 60.1513 25.9692 59.7692 26.2665L58.9443 34.5782C58.6653 37.3887 56.1338 39.423 53.3291 39.0904L44.3699 38.0282L46.1175 45.5482C46.6559 47.8651 46.9251 49.0236 46.3876 49.8418C46.3123 49.9564 46.2269 50.064 46.1323 50.1633C45.457 50.8721 44.2677 50.8721 41.889 50.8721H22.916C22.916 50.8721 22.7077 43.4728 25.5299 34.8628C27.5386 28.7347 30.6804 23.22 32.3248 20.5498Z" fill="white"/>
</mask>
<g mask="url(#mask0_762_668)">
<path fill-rule="evenodd" clip-rule="evenodd" d="M47.3119 53.2526H73.4698L60.3884 41.5811C59.6267 40.9014 59.2458 40.5616 58.8138 40.3081C58.5044 40.1265 58.1764 39.9785 57.8356 39.8665C57.3598 39.7101 56.853 39.6492 55.8394 39.5273L44.6323 38.1802C41.0227 37.7463 39.2179 37.5293 38.3552 38.1931C37.7584 38.6522 37.3836 39.3423 37.3234 40.0928C37.2364 41.1779 38.4011 42.5736 40.7303 45.365L47.3119 53.2526Z" fill="#0E305B"/>
<path fill-rule="evenodd" clip-rule="evenodd" d="M44.4531 32.0126C44.4531 30.6039 44.4531 29.8995 44.7445 29.3793C44.9503 29.0116 45.2539 28.7081 45.6215 28.5022C46.1417 28.2109 46.8355 28.2109 48.2231 28.2109H60.527C61.9146 28.2109 62.6084 28.2109 63.1286 28.5022C63.4962 28.7081 63.7998 29.0116 64.0057 29.3793C64.297 29.8995 64.297 30.6039 64.297 32.0126C64.297 33.4213 64.297 34.1257 64.0057 34.6459C63.7998 35.0135 63.4962 35.3171 63.1286 35.523C62.6084 35.8143 61.9146 35.8143 60.527 35.8143H48.2231C46.8355 35.8143 46.1417 35.8143 45.6215 35.523C45.2539 35.3171 44.9503 35.0135 44.7445 34.6459C44.4531 34.1257 44.4531 33.4213 44.4531 32.0126Z" fill="white"/>
<mask id="mask1_762_668" style="mask-type:alpha" maskUnits="userSpaceOnUse" x="44" y="28" width="21" height="8">
<path fill-rule="evenodd" clip-rule="evenodd" d="M44.4531 32.0126C44.4531 30.6039 44.4531 29.8995 44.7445 29.3793C44.9503 29.0116 45.2539 28.7081 45.6215 28.5022C46.1417 28.2109 46.8355 28.2109 48.2231 28.2109H60.527C61.9146 28.2109 62.6084 28.2109 63.1286 28.5022C63.4962 28.7081 63.7998 29.0116 64.0057 29.3793C64.297 29.8995 64.297 30.6039 64.297 32.0126C64.297 33.4213 64.297 34.1257 64.0057 34.6459C63.7998 35.0135 63.4962 35.3171 63.1286 35.523C62.6084 35.8143 61.9146 35.8143 60.527 35.8143H48.2231C46.8355 35.8143 46.1417 35.8143 45.6215 35.523C45.2539 35.3171 44.9503 35.0135 44.7445 34.6459C44.4531 34.1257 44.4531 33.4213 44.4531 32.0126Z" fill="white"/>
</mask>
<g mask="url(#mask1_762_668)">
<path fill-rule="evenodd" clip-rule="evenodd" d="M43.8564 32.9816C43.8564 32.8811 43.8564 32.8308 43.875 32.792C43.8937 32.7525 43.9255 32.7208 43.965 32.702C44.0038 32.6835 44.0541 32.6835 44.1546 32.6835H60.0948C60.1954 32.6835 60.2456 32.6835 60.2845 32.702C60.3239 32.7208 60.3557 32.7525 60.3745 32.792C60.393 32.8308 60.393 32.8811 60.393 32.9816C60.393 33.0822 60.393 33.1324 60.3745 33.1713C60.3557 33.2107 60.3239 33.2425 60.2845 33.2613C60.2456 33.2798 60.1954 33.2798 60.0948 33.2798H44.1546C44.0541 33.2798 44.0038 33.2798 43.965 33.2613C43.9255 33.2425 43.8937 33.2107 43.875 33.1713C43.8564 33.1324 43.8564 33.0822 43.8564 32.9816Z" fill="#FFACA8"/>
</g>
</g>
<path fill-rule="evenodd" clip-rule="evenodd" d="M35.371 21.6774C33.1855 23.2881 29.8281 24.2211 27.4412 22.0732C25.795 20.5918 24.9669 17.9656 24.9226 15.5848C27.0175 14.3521 30.2371 14.9294 32.7019 17.1474C34.1628 18.462 35.0778 20.1005 35.371 21.6774Z" fill="#FFACA8"/>
<path fill-rule="evenodd" clip-rule="evenodd" d="M33.0571 21.0479C32.7132 20.1292 31.9989 19.108 31.0007 18.2093C29.3166 16.693 27.3704 16.0166 26.2799 16.4808C26.566 17.8242 27.3375 19.3912 28.4623 20.4039C30.0932 21.8724 31.9549 21.7146 33.0571 21.0479Z" fill="#FF7E78"/>
<path fill-rule="evenodd" clip-rule="evenodd" d="M37.0273 18.5515L49.2464 3.29784C49.3814 3.12925 49.6484 3.28023 49.5736 3.48286L44.007 18.5515H37.0273Z" fill="#8F7AE2"/>
<path fill-rule="evenodd" clip-rule="evenodd" d="M55.8717 26.5711C56.7878 26.5711 57.5305 25.8368 57.5305 24.9311C57.5305 24.0254 56.7878 23.2912 55.8717 23.2912C54.9556 23.2912 54.2129 24.0254 54.2129 24.9311C54.2129 25.8368 54.9556 26.5711 55.8717 26.5711Z" fill="#FFACA8"/>
<path fill-rule="evenodd" clip-rule="evenodd" d="M59.4925 25.0076C59.4925 25.2968 59.2561 25.5313 58.9644 25.5313C58.6728 25.5313 58.4364 25.2968 58.4364 25.0076C58.4364 24.7184 58.6728 24.4839 58.9644 24.4839C59.2561 24.4839 59.4925 24.7184 59.4925 25.0076ZM56.4766 25.0076C56.4766 25.2969 56.2401 25.5313 55.9485 25.5313C55.6568 25.5313 55.4204 25.2969 55.4204 25.0076C55.4204 24.7184 55.6568 24.4839 55.9485 24.4839C56.2401 24.4839 56.4766 24.7184 56.4766 25.0076Z" fill="#FF7E78"/>
<path fill-rule="evenodd" clip-rule="evenodd" d="M37.5918 21.6511C37.641 22.9777 38.6369 24.0365 39.8582 24.0365C41.0795 24.0365 42.0754 22.9777 42.1246 21.6511H37.5918ZM43.2029 21.6511C43.2521 22.9776 44.2479 24.0365 45.4693 24.0365C46.6906 24.0365 47.6865 22.9776 47.7356 21.6511H43.2029Z" fill="#0E305B"/>
<path d="M37.5918 21.6511L37.2113 21.6653L37.1966 21.2703H37.5918V21.6511ZM42.1246 21.6511V21.2703H42.5197L42.5051 21.6653L42.1246 21.6511ZM43.2029 21.6511L42.8223 21.6652L42.8077 21.2703H43.2029V21.6511ZM47.7356 21.6511V21.2703H48.1308L48.1162 21.6652L47.7356 21.6511ZM37.9723 21.637C38.0152 22.7918 38.8731 23.6557 39.8582 23.6557V24.4173C38.4006 24.4173 37.2668 23.1635 37.2113 21.6653L37.9723 21.637ZM39.8582 23.6557C40.8433 23.6557 41.7012 22.7918 41.744 21.637L42.5051 21.6653C42.4495 23.1635 41.3157 24.4173 39.8582 24.4173V23.6557ZM42.1246 22.032H37.5918V21.2703H42.1246V22.032ZM43.5834 21.637C43.6262 22.7917 44.4842 23.6557 45.4693 23.6557V24.4173C44.0117 24.4173 42.8779 23.1635 42.8223 21.6652L43.5834 21.637ZM45.4693 23.6557C46.4543 23.6557 47.3123 22.7917 47.3551 21.637L48.1162 21.6652C48.0606 23.1635 46.9268 24.4173 45.4693 24.4173V23.6557ZM47.7356 22.0319H43.2029V21.2703H47.7356V22.0319Z" fill="#0E305B"/>
<path opacity="0.156816" d="M45.3486 21.6512L44.752 22.8438H45.9453L45.3486 24.0365" stroke="white" stroke-width="0.384615"/>
<path opacity="0.156816" d="M39.9785 21.6512L39.3818 22.8438H40.5752L39.9785 24.0365" stroke="white" stroke-width="0.384615"/>
<path d="M24.6099 35.616C24.6099 35.616 24.108 39.438 27.5392 44.7226C30.9704 50.0072 36.4354 53.8292 36.4354 53.8292C36.4354 53.8292 40.4221 50.4037 41.2004 47.746C41.9787 45.0882 39.9984 41.6627 39.9984 41.6627" stroke="#FFE09A" stroke-width="0.952018" stroke-linecap="round" stroke-linejoin="round"/>
<path fill-rule="evenodd" clip-rule="evenodd" d="M36.3985 58.3264C37.7167 58.3264 38.7853 56.1905 38.7853 53.5557C38.7853 50.9209 37.7167 48.7849 36.3985 48.7849C35.0803 48.7849 34.0117 50.9209 34.0117 53.5557C34.0117 56.1905 35.0803 58.3264 36.3985 58.3264Z" fill="#FFE09A"/>
<mask id="mask2_762_668" style="mask-type:alpha" maskUnits="userSpaceOnUse" x="34" y="48" width="5" height="11">
<path fill-rule="evenodd" clip-rule="evenodd" d="M36.3985 58.3264C37.7167 58.3264 38.7853 56.1905 38.7853 53.5557C38.7853 50.9209 37.7167 48.7849 36.3985 48.7849C35.0803 48.7849 34.0117 50.9209 34.0117 53.5557C34.0117 56.1905 35.0803 58.3264 36.3985 58.3264Z" fill="white"/>
</mask>
<g mask="url(#mask2_762_668)">
<path d="M36.9675 50.6193L35.835 53.731H37.2206L36.3139 56.387" stroke="#F6CB69" stroke-width="0.761615"/>
<path fill-rule="evenodd" clip-rule="evenodd" d="M37.2934 48.785H34.6083L37.5917 58.6247H40.2769L37.2934 48.785Z" fill="white" fill-opacity="0.4"/>
</g>
<path d="M17.0106 31.9417C17.0133 31.9433 17.0159 31.9449 17.0185 31.9465V42.2335C16.7201 42.0208 16.2899 41.7481 15.7559 41.5021C14.6811 41.007 13.1698 40.6132 11.4646 41.054C9.80175 41.4838 8.96104 42.009 8.22311 42.5049C8.17824 42.5351 8.13385 42.565 8.08977 42.5948C7.42613 43.0428 6.8317 43.4441 5.69656 43.7375C4.51637 44.0426 3.13976 43.7663 2.02856 43.3917C1.47838 43.2063 1.00461 43.0006 0.668553 42.8414C0.505867 42.7643 0.375881 42.6983 0.285605 42.651V32.3304C0.288774 32.3323 0.291957 32.3343 0.295155 32.3363C0.594254 32.5208 1.02676 32.757 1.56421 32.9659C2.63847 33.3835 4.14345 33.6965 5.8395 33.2582C7.50235 32.8284 8.34306 32.3031 9.08099 31.8072C9.12586 31.7771 9.17024 31.7471 9.21432 31.7174C9.87796 31.2693 10.4724 30.868 11.6075 30.5746C12.7781 30.2721 14.1479 30.6152 15.2599 31.0637C15.8096 31.2854 16.2832 31.5274 16.6192 31.7139C16.787 31.8071 16.9201 31.8862 17.0106 31.9417Z" fill="#78B07B"/>
<path d="M17.0106 31.9417C17.0133 31.9433 17.0159 31.9449 17.0185 31.9465V42.2335C16.7201 42.0208 16.2899 41.7481 15.7559 41.5021C14.6811 41.007 13.1698 40.6132 11.4646 41.054C9.80175 41.4838 8.96104 42.009 8.22311 42.5049C8.17824 42.5351 8.13385 42.565 8.08977 42.5948C7.42613 43.0428 6.8317 43.4441 5.69656 43.7375C4.51637 44.0426 3.13976 43.7663 2.02856 43.3917C1.47838 43.2063 1.00461 43.0006 0.668553 42.8414C0.505867 42.7643 0.375881 42.6983 0.285605 42.651V32.3304C0.288774 32.3323 0.291957 32.3343 0.295155 32.3363C0.594254 32.5208 1.02676 32.757 1.56421 32.9659C2.63847 33.3835 4.14345 33.6965 5.8395 33.2582C7.50235 32.8284 8.34306 32.3031 9.08099 31.8072C9.12586 31.7771 9.17024 31.7471 9.21432 31.7174C9.87796 31.2693 10.4724 30.868 11.6075 30.5746C12.7781 30.2721 14.1479 30.6152 15.2599 31.0637C15.8096 31.2854 16.2832 31.5274 16.6192 31.7139C16.787 31.8071 16.9201 31.8862 17.0106 31.9417Z" stroke="black" stroke-opacity="0.1" stroke-width="0.571211"/>
<path d="M17.0106 31.9417C17.0133 31.9433 17.0159 31.9449 17.0185 31.9465V42.2335C16.7201 42.0208 16.2899 41.7481 15.7559 41.5021C14.6811 41.007 13.1698 40.6132 11.4646 41.054C9.80175 41.4838 8.96104 42.009 8.22311 42.5049C8.17824 42.5351 8.13385 42.565 8.08977 42.5948C7.42613 43.0428 6.8317 43.4441 5.69656 43.7375C4.51637 44.0426 3.13976 43.7663 2.02856 43.3917C1.47838 43.2063 1.00461 43.0006 0.668553 42.8414C0.505867 42.7643 0.375881 42.6983 0.285605 42.651V32.3304C0.288774 32.3323 0.291957 32.3343 0.295155 32.3363C0.594254 32.5208 1.02676 32.757 1.56421 32.9659C2.63847 33.3835 4.14345 33.6965 5.8395 33.2582C7.50235 32.8284 8.34306 32.3031 9.08099 31.8072C9.12586 31.7771 9.17024 31.7471 9.21432 31.7174C9.87796 31.2693 10.4724 30.868 11.6075 30.5746C12.7781 30.2721 14.1479 30.6152 15.2599 31.0637C15.8096 31.2854 16.2832 31.5274 16.6192 31.7139C16.787 31.8071 16.9201 31.8862 17.0106 31.9417Z" stroke="#78B07B" stroke-width="0.571211"/>
<path d="M9.65297 37.1561C9.65297 37.9561 9.49034 38.6708 9.23638 39.1785C8.97668 39.6976 8.65346 39.9455 8.35355 39.9455C8.05364 39.9455 7.73042 39.6976 7.47072 39.1785C7.21676 38.6708 7.05412 37.9561 7.05412 37.1561C7.05412 36.3561 7.21676 35.6414 7.47072 35.1337C7.73042 34.6146 8.05364 34.3667 8.35355 34.3667C8.65346 34.3667 8.97668 34.6146 9.23638 35.1337C9.49034 35.6414 9.65297 36.3561 9.65297 37.1561Z" fill="black" fill-opacity="0.1"/>
<path d="M9.65297 37.1561C9.65297 37.9561 9.49034 38.6708 9.23638 39.1785C8.97668 39.6976 8.65346 39.9455 8.35355 39.9455C8.05364 39.9455 7.73042 39.6976 7.47072 39.1785C7.21676 38.6708 7.05412 37.9561 7.05412 37.1561C7.05412 36.3561 7.21676 35.6414 7.47072 35.1337C7.73042 34.6146 8.05364 34.3667 8.35355 34.3667C8.65346 34.3667 8.97668 34.6146 9.23638 35.1337C9.49034 35.6414 9.65297 36.3561 9.65297 37.1561Z" stroke="#78B07B" stroke-width="0.384615"/>
<path d="M9.65297 37.1561C9.65297 37.9561 9.49034 38.6708 9.23638 39.1785C8.97668 39.6976 8.65346 39.9455 8.35355 39.9455C8.05364 39.9455 7.73042 39.6976 7.47072 39.1785C7.21676 38.6708 7.05412 37.9561 7.05412 37.1561C7.05412 36.3561 7.21676 35.6414 7.47072 35.1337C7.73042 34.6146 8.05364 34.3667 8.35355 34.3667C8.65346 34.3667 8.97668 34.6146 9.23638 35.1337C9.49034 35.6414 9.65297 36.3561 9.65297 37.1561Z" stroke="black" stroke-opacity="0.1" stroke-width="0.384615"/>
<path d="M2.02383 1.42387C2.0221 1.42493 2.02039 1.42597 2.0187 1.42701V9.56525C2.25536 9.39712 2.59551 9.18219 3.01742 8.98819C3.87005 8.59612 5.06907 8.28425 6.42195 8.63329C7.74099 8.97361 8.40795 9.38953 8.99332 9.7822C9.02891 9.80607 9.06411 9.82979 9.09907 9.85335C9.62537 10.208 10.0966 10.5256 10.9966 10.7578C11.9322 10.9991 13.0236 10.7806 13.9048 10.4841C14.3411 10.3373 14.7167 10.1745 14.9832 10.0484C15.1115 9.98775 15.2141 9.93574 15.2857 9.89836V1.73332C15.2841 1.73429 15.2825 1.73526 15.2809 1.73623C15.0437 1.88239 14.7005 2.06938 14.2742 2.23483C13.4219 2.56553 12.228 2.81343 10.8824 2.46628C9.56339 2.12596 8.89643 1.71004 8.31106 1.31737C8.27547 1.2935 8.24027 1.26978 8.20531 1.24622C7.67902 0.891556 7.20778 0.573998 6.30779 0.341798C5.37995 0.102414 4.29392 0.373931 3.41204 0.728933C2.97617 0.904397 2.60069 1.09591 2.33421 1.24361C2.20113 1.31737 2.09563 1.37998 2.02383 1.42387Z" fill="#78B07B"/>
<path d="M2.02383 1.42387C2.0221 1.42493 2.02039 1.42597 2.0187 1.42701V9.56525C2.25536 9.39712 2.59551 9.18219 3.01742 8.98819C3.87005 8.59612 5.06907 8.28425 6.42195 8.63329C7.74099 8.97361 8.40795 9.38953 8.99332 9.7822C9.02891 9.80607 9.06411 9.82979 9.09907 9.85335C9.62537 10.208 10.0966 10.5256 10.9966 10.7578C11.9322 10.9991 13.0236 10.7806 13.9048 10.4841C14.3411 10.3373 14.7167 10.1745 14.9832 10.0484C15.1115 9.98775 15.2141 9.93574 15.2857 9.89836V1.73332C15.2841 1.73429 15.2825 1.73526 15.2809 1.73623C15.0437 1.88239 14.7005 2.06938 14.2742 2.23483C13.4219 2.56553 12.228 2.81343 10.8824 2.46628C9.56339 2.12596 8.89643 1.71004 8.31106 1.31737C8.27547 1.2935 8.24027 1.26978 8.20531 1.24622C7.67902 0.891556 7.20778 0.573998 6.30779 0.341798C5.37995 0.102414 4.29392 0.373931 3.41204 0.728933C2.97617 0.904397 2.60069 1.09591 2.33421 1.24361C2.20113 1.31737 2.09563 1.37998 2.02383 1.42387Z" stroke="black" stroke-opacity="0.1" stroke-width="0.456969"/>
<path d="M2.02383 1.42387C2.0221 1.42493 2.02039 1.42597 2.0187 1.42701V9.56525C2.25536 9.39712 2.59551 9.18219 3.01742 8.98819C3.87005 8.59612 5.06907 8.28425 6.42195 8.63329C7.74099 8.97361 8.40795 9.38953 8.99332 9.7822C9.02891 9.80607 9.06411 9.82979 9.09907 9.85335C9.62537 10.208 10.0966 10.5256 10.9966 10.7578C11.9322 10.9991 13.0236 10.7806 13.9048 10.4841C14.3411 10.3373 14.7167 10.1745 14.9832 10.0484C15.1115 9.98775 15.2141 9.93574 15.2857 9.89836V1.73332C15.2841 1.73429 15.2825 1.73526 15.2809 1.73623C15.0437 1.88239 14.7005 2.06938 14.2742 2.23483C13.4219 2.56553 12.228 2.81343 10.8824 2.46628C9.56339 2.12596 8.89643 1.71004 8.31106 1.31737C8.27547 1.2935 8.24027 1.26978 8.20531 1.24622C7.67902 0.891556 7.20778 0.573998 6.30779 0.341798C5.37995 0.102414 4.29392 0.373931 3.41204 0.728933C2.97617 0.904397 2.60069 1.09591 2.33421 1.24361C2.20113 1.31737 2.09563 1.37998 2.02383 1.42387Z" stroke="#78B07B" stroke-width="0.456969"/>
<path d="M7.89789 5.5498C7.89789 6.1782 8.02596 6.7376 8.22403 7.13278C8.42779 7.53934 8.67382 7.71803 8.88868 7.71803C9.10354 7.71803 9.34957 7.53934 9.55333 7.13278C9.7514 6.7376 9.87947 6.1782 9.87947 5.5498C9.87947 4.92141 9.7514 4.36201 9.55333 3.96682C9.34957 3.56026 9.10354 3.38158 8.88868 3.38158C8.67382 3.38158 8.42779 3.56026 8.22403 3.96682C8.02596 4.36201 7.89789 4.92141 7.89789 5.5498Z" fill="black" fill-opacity="0.1"/>
<path d="M7.89789 5.5498C7.89789 6.1782 8.02596 6.7376 8.22403 7.13278C8.42779 7.53934 8.67382 7.71803 8.88868 7.71803C9.10354 7.71803 9.34957 7.53934 9.55333 7.13278C9.7514 6.7376 9.87947 6.1782 9.87947 5.5498C9.87947 4.92141 9.7514 4.36201 9.55333 3.96682C9.34957 3.56026 9.10354 3.38158 8.88868 3.38158C8.67382 3.38158 8.42779 3.56026 8.22403 3.96682C8.02596 4.36201 7.89789 4.92141 7.89789 5.5498Z" stroke="#78B07B" stroke-width="0.384615"/>
<path d="M7.89789 5.5498C7.89789 6.1782 8.02596 6.7376 8.22403 7.13278C8.42779 7.53934 8.67382 7.71803 8.88868 7.71803C9.10354 7.71803 9.34957 7.53934 9.55333 7.13278C9.7514 6.7376 9.87947 6.1782 9.87947 5.5498C9.87947 4.92141 9.7514 4.36201 9.55333 3.96682C9.34957 3.56026 9.10354 3.38158 8.88868 3.38158C8.67382 3.38158 8.42779 3.56026 8.22403 3.96682C8.02596 4.36201 7.89789 4.92141 7.89789 5.5498Z" stroke="black" stroke-opacity="0.1" stroke-width="0.384615"/>
<path d="M50.3559 58.5762C50.3541 58.5751 50.3524 58.5741 50.3507 58.5731V50.4348C50.5874 50.6029 50.9275 50.8179 51.3494 51.0119C52.2021 51.4039 53.4011 51.7158 54.754 51.3668C56.073 51.0265 56.74 50.6105 57.3254 50.2179C57.3609 50.194 57.3961 50.1703 57.4311 50.1467C57.9574 49.792 58.4286 49.4745 59.3286 49.2423C60.2642 49.0009 61.3556 49.2195 62.2368 49.516C62.6731 49.6628 63.0488 49.8256 63.3153 49.9516C63.4435 50.0123 63.5462 50.0643 63.6177 50.1017V58.2667C63.6161 58.2658 63.6146 58.2648 63.613 58.2638C63.3757 58.1177 63.0326 57.9307 62.6062 57.7652C61.754 57.4345 60.56 57.1866 59.2145 57.5338C57.8954 57.8741 57.2285 58.29 56.6431 58.6827C56.6075 58.7066 56.5723 58.7303 56.5373 58.7538C56.011 59.1085 55.5398 59.4261 54.6398 59.6583C53.712 59.8976 52.6259 59.6261 51.7441 59.2711C51.3082 59.0957 50.9327 58.9041 50.6662 58.7565C50.5332 58.6827 50.4277 58.6201 50.3559 58.5762Z" fill="#78B07B"/>
<path d="M50.3559 58.5762C50.3541 58.5751 50.3524 58.5741 50.3507 58.5731V50.4348C50.5874 50.6029 50.9275 50.8179 51.3494 51.0119C52.2021 51.4039 53.4011 51.7158 54.754 51.3668C56.073 51.0265 56.74 50.6105 57.3254 50.2179C57.3609 50.194 57.3961 50.1703 57.4311 50.1467C57.9574 49.792 58.4286 49.4745 59.3286 49.2423C60.2642 49.0009 61.3556 49.2195 62.2368 49.516C62.6731 49.6628 63.0488 49.8256 63.3153 49.9516C63.4435 50.0123 63.5462 50.0643 63.6177 50.1017V58.2667C63.6161 58.2658 63.6146 58.2648 63.613 58.2638C63.3757 58.1177 63.0326 57.9307 62.6062 57.7652C61.754 57.4345 60.56 57.1866 59.2145 57.5338C57.8954 57.8741 57.2285 58.29 56.6431 58.6827C56.6075 58.7066 56.5723 58.7303 56.5373 58.7538C56.011 59.1085 55.5398 59.4261 54.6398 59.6583C53.712 59.8976 52.6259 59.6261 51.7441 59.2711C51.3082 59.0957 50.9327 58.9041 50.6662 58.7565C50.5332 58.6827 50.4277 58.6201 50.3559 58.5762Z" stroke="black" stroke-opacity="0.1" stroke-width="0.456969"/>
<path d="M50.3559 58.5762C50.3541 58.5751 50.3524 58.5741 50.3507 58.5731V50.4348C50.5874 50.6029 50.9275 50.8179 51.3494 51.0119C52.2021 51.4039 53.4011 51.7158 54.754 51.3668C56.073 51.0265 56.74 50.6105 57.3254 50.2179C57.3609 50.194 57.3961 50.1703 57.4311 50.1467C57.9574 49.792 58.4286 49.4745 59.3286 49.2423C60.2642 49.0009 61.3556 49.2195 62.2368 49.516C62.6731 49.6628 63.0488 49.8256 63.3153 49.9516C63.4435 50.0123 63.5462 50.0643 63.6177 50.1017V58.2667C63.6161 58.2658 63.6146 58.2648 63.613 58.2638C63.3757 58.1177 63.0326 57.9307 62.6062 57.7652C61.754 57.4345 60.56 57.1866 59.2145 57.5338C57.8954 57.8741 57.2285 58.29 56.6431 58.6827C56.6075 58.7066 56.5723 58.7303 56.5373 58.7538C56.011 59.1085 55.5398 59.4261 54.6398 59.6583C53.712 59.8976 52.6259 59.6261 51.7441 59.2711C51.3082 59.0957 50.9327 58.9041 50.6662 58.7565C50.5332 58.6827 50.4277 58.6201 50.3559 58.5762Z" stroke="#78B07B" stroke-width="0.456969"/>
<path d="M56.2299 54.4503C56.2299 53.8219 56.358 53.2625 56.5561 52.8673C56.7598 52.4607 57.0058 52.2821 57.2207 52.2821C57.4356 52.2821 57.6816 52.4607 57.8854 52.8673C58.0834 53.2625 58.2115 53.8219 58.2115 54.4503C58.2115 55.0787 58.0834 55.6381 57.8854 56.0333C57.6816 56.4398 57.4356 56.6185 57.2207 56.6185C57.0058 56.6185 56.7598 56.4398 56.5561 56.0333C56.358 55.6381 56.2299 55.0787 56.2299 54.4503Z" fill="black" fill-opacity="0.1"/>
<path d="M56.2299 54.4503C56.2299 53.8219 56.358 53.2625 56.5561 52.8673C56.7598 52.4607 57.0058 52.2821 57.2207 52.2821C57.4356 52.2821 57.6816 52.4607 57.8854 52.8673C58.0834 53.2625 58.2115 53.8219 58.2115 54.4503C58.2115 55.0787 58.0834 55.6381 57.8854 56.0333C57.6816 56.4398 57.4356 56.6185 57.2207 56.6185C57.0058 56.6185 56.7598 56.4398 56.5561 56.0333C56.358 55.6381 56.2299 55.0787 56.2299 54.4503Z" stroke="#78B07B" stroke-width="0.384615"/>
<path d="M56.2299 54.4503C56.2299 53.8219 56.358 53.2625 56.5561 52.8673C56.7598 52.4607 57.0058 52.2821 57.2207 52.2821C57.4356 52.2821 57.6816 52.4607 57.8854 52.8673C58.0834 53.2625 58.2115 53.8219 58.2115 54.4503C58.2115 55.0787 58.0834 55.6381 57.8854 56.0333C57.6816 56.4398 57.4356 56.6185 57.2207 56.6185C57.0058 56.6185 56.7598 56.4398 56.5561 56.0333C56.358 55.6381 56.2299 55.0787 56.2299 54.4503Z" stroke="black" stroke-opacity="0.1" stroke-width="0.384615"/>
</svg>
