<svg width="272" height="80" viewBox="0 0 272 80" fill="none" xmlns="http://www.w3.org/2000/svg">
<g clip-path="url(#clip0_368_13650)">
<path fill-rule="evenodd" clip-rule="evenodd" d="M3.01267 20.2412C5.89358 18.5684 9.57739 19.5611 11.2407 22.4584L21.5326 40.3864C23.1959 43.2837 22.2088 46.9886 19.3279 48.6614C16.447 50.3342 12.7632 49.3415 11.0999 46.4441L0.807978 28.5162C-0.855317 25.6188 0.131756 21.914 3.01267 20.2412ZM60.9873 20.2412C63.8682 21.914 64.8553 25.6188 63.192 28.5162L45.875 58.6816C44.2117 61.579 40.5279 62.5717 37.6469 60.8989C34.766 59.2261 33.779 55.5212 35.4422 52.6239L52.7593 22.4584C54.4226 19.5611 58.1064 18.5684 60.9873 20.2412Z" fill="#FFACA8"/>
<path fill-rule="evenodd" clip-rule="evenodd" d="M20.3458 20.2412C23.2267 18.5684 26.9105 19.5611 28.5738 22.4584L45.8909 52.6239C47.5542 55.5212 46.5671 59.2261 43.6862 60.8989C40.8053 62.5717 37.1215 61.579 35.4582 58.6816L18.1411 28.5162C16.4778 25.6188 17.4649 21.914 20.3458 20.2412ZM40.6921 19.4286C44.0181 19.4286 46.7144 22.1407 46.7144 25.4863V25.4891C46.7144 28.8347 44.0181 31.5468 40.6921 31.5468H40.69C37.364 31.5468 34.6678 28.8347 34.6678 25.4891V25.4863C34.6678 22.1407 37.364 19.4286 40.69 19.4286H40.6921ZM23.3098 49.596C26.6358 49.596 29.332 52.3082 29.332 55.6538V55.6565C29.332 59.0021 26.6358 61.7143 23.3098 61.7143H23.3077C19.9817 61.7143 17.2854 59.0021 17.2854 55.6565V55.6538C17.2854 52.3082 19.9817 49.596 23.3077 49.596H23.3098Z" fill="#0E305B"/>
<path fill-rule="evenodd" clip-rule="evenodd" d="M102.974 45.4637L110.968 31.4615C111.636 30.291 113.116 29.8899 114.274 30.5657C115.432 31.2415 115.828 32.7383 115.16 33.9089L105.256 51.2557C105.065 51.7663 104.706 52.2159 104.202 52.51C103.045 53.1858 101.564 52.7847 100.896 51.6142L97.73 46.0687L94.7686 51.2557C94.5781 51.7663 94.2185 52.2159 93.7147 52.51C92.5571 53.1858 91.077 52.7847 90.4087 51.6142L80.3246 33.9518C79.6563 32.7813 80.0529 31.2845 81.2105 30.6087C82.368 29.9328 83.8482 30.3339 84.5165 31.5045L92.4863 45.4637L94.9354 41.174L90.812 33.9518C90.1437 32.7813 90.5403 31.2845 91.6979 30.6087C92.8554 29.9328 94.3356 30.3339 95.0039 31.5045L97.73 36.2793L100.481 31.4615C101.149 30.291 102.629 29.8899 103.787 30.5657C104.944 31.2415 105.341 32.7383 104.672 33.9089L100.525 41.174L102.974 45.4637Z" fill="#0E305B"/>
<path fill-rule="evenodd" clip-rule="evenodd" d="M132.458 50.9383C130.625 52.2375 128.392 52.9999 125.984 52.9999C119.746 52.9999 114.689 47.8866 114.689 41.5789C114.689 35.2712 119.746 30.1578 125.984 30.1578C128.392 30.1578 130.625 30.9203 132.458 32.2195C132.602 31.0581 133.623 30.1578 134.861 30.1578C136.197 30.1578 137.281 31.2075 137.281 32.5024V50.6554C137.281 51.9503 136.197 52.9999 134.861 52.9999C133.623 52.9999 132.602 52.0997 132.458 50.9383ZM125.93 35.0526C122.395 35.0526 119.53 37.8284 119.53 41.2526V41.9052C119.53 45.3294 122.395 48.1052 125.93 48.1052H126.037C129.572 48.1052 132.437 45.3294 132.437 41.9052V41.2526C132.437 37.8284 129.572 35.0526 126.037 35.0526H125.93Z" fill="#0E305B"/>
<path fill-rule="evenodd" clip-rule="evenodd" d="M156.638 40.5232C156.638 37.5018 154.11 35.0526 150.991 35.0526C147.873 35.0526 145.344 37.5018 145.344 40.5232V50.6554C145.344 51.9503 144.261 52.9999 142.924 52.9999C141.587 52.9999 140.504 51.9503 140.504 50.6554V40.7631C140.504 34.906 145.199 30.1578 150.991 30.1578C156.783 30.1578 161.479 34.906 161.479 40.7631V50.6554C161.479 51.9503 160.395 52.9999 159.059 52.9999C157.722 52.9999 156.638 51.9503 156.638 50.6554V40.5232Z" fill="#0E305B"/>
<path fill-rule="evenodd" clip-rule="evenodd" d="M163.901 42.5851C163.9 42.5561 163.899 42.5269 163.899 42.4976V24.3445C163.899 23.0497 164.983 22 166.32 22C167.656 22 168.74 23.0497 168.74 24.3445V30.1579H175.087C176.483 30.1579 177.614 31.2536 177.614 32.6053C177.614 33.9569 176.483 35.0526 175.087 35.0526H168.74V42.6347C168.74 45.656 171.268 48.1053 174.387 48.1053C175.723 48.1053 176.807 49.201 176.807 50.5526C176.807 51.9043 175.723 53 174.387 53C168.658 53 164.001 48.3544 163.901 42.5851Z" fill="#0E305B"/>
<path fill-rule="evenodd" clip-rule="evenodd" d="M197.101 49.3687L197.136 49.4026C195.076 51.6171 192.152 52.9999 188.908 52.9999C182.67 52.9999 177.614 47.8866 177.614 41.5789C177.614 35.2712 182.67 30.1578 188.908 30.1578C194.347 30.1578 198.888 34.0459 199.962 39.2236C200.332 41.0117 199.199 42.7652 197.431 43.1401C197.21 43.1869 196.985 43.2105 196.76 43.2105H195.388L195.382 43.2105H182.596C183.215 46.0079 185.782 48.1052 188.854 48.1052H188.962C190.684 48.1052 192.247 47.4462 193.398 46.3744C193.439 46.3174 193.484 46.2616 193.531 46.2071C194.428 45.1716 195.985 45.007 197.009 45.8393C198.033 46.6716 198.136 48.1857 197.239 49.2211C197.194 49.2725 197.148 49.3216 197.101 49.3687ZM194.6 38.3157C193.519 36.3729 191.399 35.0526 188.962 35.0526H188.854C186.416 35.0526 184.297 36.3729 183.216 38.3157H194.6Z" fill="#0E305B"/>
<path fill-rule="evenodd" clip-rule="evenodd" d="M221.302 49.3687L221.337 49.4026C219.277 51.6171 216.353 52.9999 213.109 52.9999C206.872 52.9999 201.815 47.8866 201.815 41.5789C201.815 35.2712 206.872 30.1578 213.109 30.1578C218.548 30.1578 223.089 34.0459 224.163 39.2236C224.534 41.0117 223.401 42.7652 221.632 43.1401C221.412 43.1869 221.187 43.2105 220.961 43.2105H219.589L219.583 43.2105H206.797C207.416 46.0079 209.983 48.1052 213.055 48.1052H213.163C214.885 48.1052 216.448 47.4462 217.599 46.3744C217.64 46.3174 217.685 46.2616 217.732 46.2071C218.629 45.1716 220.186 45.007 221.21 45.8393C222.234 46.6716 222.337 48.1857 221.44 49.2211C221.396 49.2725 221.349 49.3216 221.302 49.3687ZM218.801 38.3157C217.72 36.3729 215.601 35.0526 213.163 35.0526H213.055C210.618 35.0526 208.498 36.3729 207.417 38.3157H218.801Z" fill="#0E305B"/>
<path fill-rule="evenodd" clip-rule="evenodd" d="M245.504 49.3687L245.539 49.4026C243.479 51.6171 240.554 52.9999 237.311 52.9999C231.073 52.9999 226.017 47.8866 226.017 41.5789C226.017 35.2712 231.073 30.1578 237.311 30.1578C242.75 30.1578 247.291 34.0459 248.364 39.2236C248.735 41.0117 247.602 42.7652 245.834 43.1401C245.613 43.1869 245.388 43.2105 245.163 43.2105H243.791L243.785 43.2105H230.999C231.618 46.0079 234.185 48.1052 237.257 48.1052H237.365C239.087 48.1052 240.65 47.4462 241.8 46.3744C241.842 46.3174 241.887 46.2616 241.934 46.2071C242.831 45.1716 244.388 45.007 245.412 45.8393C246.435 46.6716 246.538 48.1857 245.642 49.2211C245.597 49.2725 245.551 49.3216 245.504 49.3687ZM243.002 38.3157C241.922 36.3729 239.802 35.0526 237.365 35.0526H237.257C234.819 35.0526 232.7 36.3729 231.619 38.3157H243.002Z" fill="#0E305B"/>
<path fill-rule="evenodd" clip-rule="evenodd" d="M267.178 50.9404C265.345 52.2384 263.114 53 260.706 53C254.469 53 249.412 47.8866 249.412 41.5789C249.412 35.2713 254.469 30.1579 260.706 30.1579C263.106 30.1579 265.331 30.9146 267.16 32.205V24.3445C267.16 23.0497 268.244 22 269.58 22C270.917 22 272 23.0497 272 24.3445V50.6555C272 51.9503 270.917 53 269.58 53C268.343 53 267.323 52.1009 267.178 50.9404ZM260.652 35.0526C257.118 35.0526 254.252 37.8285 254.252 41.2526V41.9053C254.252 45.3294 257.118 48.1053 260.652 48.1053H260.76C264.295 48.1053 267.16 45.3294 267.16 41.9053V41.2526C267.16 37.8285 264.295 35.0526 260.76 35.0526H260.652Z" fill="#0E305B"/>
</g>
<defs>
<clipPath id="clip0_368_13650">
<rect width="272" height="80" fill="white"/>
</clipPath>
</defs>
</svg>
