<svg viewBox="0 0 20 14" fill="none" xmlns="http://www.w3.org/2000/svg">
  <path fill-rule="evenodd" clip-rule="evenodd" d="M19.7475 3.294C20.2673 2.4032 19.9588 1.26414 19.0585 0.749833C18.1582 0.235529 17.007 0.54074 16.4873 1.43154L11.0756 10.7059C10.5559 11.5967 10.8643 12.7358 11.7646 13.2501C12.6649 13.7644 13.8161 13.4592 14.3359 12.5684L19.7475 3.294ZM3.51274 1.43159C2.99296 0.540788 1.84176 0.235577 0.941466 0.749881C0.0411742 1.26419 -0.267289 2.40325 0.252495 3.29405L3.46873 8.80601C3.98852 9.69681 5.13971 10.002 6.04001 9.48772C6.9403 8.97341 7.24876 7.83435 6.72898 6.94355L3.51274 1.43159Z" fill="#FF908E"/>
  <path fill-rule="evenodd" clip-rule="evenodd" d="M14.5987 2.36246C14.5987 1.33385 13.7649 0.5 12.7362 0.5H12.6966C11.668 0.5 10.8341 1.33385 10.8341 2.36246C10.8341 3.39107 11.668 4.22492 12.6966 4.22492H12.7363C13.7649 4.22492 14.5987 3.39107 14.5987 2.36246ZM6.35855 0.749833C7.25884 0.235529 8.41004 0.54074 8.92983 1.43154L14.3414 10.7059C14.8612 11.5967 14.5528 12.7358 13.6525 13.2501C12.7522 13.7644 11.601 13.4592 11.0812 12.5684L5.66958 3.294C5.1498 2.4032 5.45826 1.26414 6.35855 0.749833ZM7.304 9.77539C8.33261 9.77539 9.16646 10.6092 9.16646 11.6379C9.16646 12.6665 8.33261 13.5003 7.304 13.5003H7.26432C6.23571 13.5003 5.40186 12.6665 5.40186 11.6379C5.40186 10.6092 6.23571 9.77539 7.26432 9.77539H7.304Z" fill="#0E305B"/>
</svg>