<svg width="570" height="440" viewBox="0 0 570 440" fill="none" xmlns="http://www.w3.org/2000/svg">
<g clip-path="url(#clip0)">
<path d="M212.339 283.627L257.318 332.3C270.774 346.86 292.472 350.266 309.741 340.527L406.173 286.145" stroke="url(#paint0_linear)" stroke-width="47.0495" stroke-linecap="round" stroke-linejoin="round"/>
<path fill-rule="evenodd" clip-rule="evenodd" d="M395.531 265.085L418.938 250.458C423.505 247.604 429.532 249.974 430.932 255.175L434.759 269.392L444.497 277.489C448.697 280.982 448.252 287.561 443.619 290.457L420.436 304.943L404.541 279.504L395.531 265.085Z" fill="#8F7AE2"/>
<path fill-rule="evenodd" clip-rule="evenodd" d="M244.359 142.409C244.871 130.931 249.729 118.396 258.778 107.611C274.045 89.4167 296.293 82.1046 312.367 88.7537C314.419 105.684 311.158 125.138 300.961 137.29C286.176 154.91 261.452 151.648 244.359 142.409Z" fill="#FF7E78"/>
<path fill-rule="evenodd" clip-rule="evenodd" d="M281.596 117.876C281.596 144.631 266.356 167.85 244.027 179.444C244.728 184.11 245.091 188.885 245.091 193.745C245.091 233.781 220.452 268.103 185.41 282.574C183.623 291.192 180.343 299.269 175.85 306.526V342.191H131.328C125.869 357.34 114.074 367.827 100.403 367.827C82.5555 367.827 67.9049 349.953 66.3778 327.167C48.146 313.521 36.3594 291.837 36.3594 267.419C36.3594 248.74 43.2573 231.661 54.6617 218.555C52.5391 210.64 51.4078 202.324 51.4078 193.745C51.4078 141.792 92.8977 99.461 144.77 97.6423C153.493 69.1667 180.147 48.4458 211.675 48.4458C250.291 48.4458 281.596 79.531 281.596 117.876Z" fill="#0E305B"/>
<path fill-rule="evenodd" clip-rule="evenodd" d="M238.826 305.873C273.608 305.873 301.803 277.658 301.803 242.852C301.803 208.046 273.608 179.83 238.826 179.83C204.045 179.83 175.85 208.046 175.85 242.852C175.85 277.658 204.045 305.873 238.826 305.873Z" fill="#0E305B"/>
<path fill-rule="evenodd" clip-rule="evenodd" d="M211.184 111.623C203.651 112.343 196.864 116.37 192.865 122.795C181.538 140.994 157.851 181.87 142.917 227.489C140.562 234.681 137.53 242.395 134.292 250.629C123.01 279.324 109.238 314.35 113.008 355.705C114.342 370.346 140.108 402.009 140.108 402.009H320.432L320.41 401.932L320.121 401.975L242.517 296.756C226.868 275.538 244.3 245.914 270.448 249.29L277.765 250.235L277.748 250.172L320.996 255.306C352.504 259.047 380.944 236.193 384.074 204.619L387.912 165.899C390.646 163.769 392.399 160.483 392.399 156.795C392.399 150.375 387.085 145.17 380.529 145.17C375.106 145.17 370.532 148.732 369.114 153.598H292.69L294.902 139.475C297.176 124.962 286.828 111.485 272.197 110.171C262.825 109.33 253.684 108.611 249.818 108.611C243.74 108.611 224.106 110.387 211.184 111.623Z" fill="#FFACA8"/>
<mask id="mask0" mask-type="alpha" maskUnits="userSpaceOnUse" x="112" y="108" width="281" height="295">
<path fill-rule="evenodd" clip-rule="evenodd" d="M211.184 111.623C203.651 112.343 196.864 116.37 192.865 122.795C181.538 140.994 157.851 181.87 142.917 227.489C140.562 234.681 137.53 242.395 134.292 250.629C123.01 279.324 109.238 314.35 113.008 355.705C114.342 370.346 140.108 402.009 140.108 402.009H320.432L320.41 401.932L320.121 401.975L242.517 296.756C226.868 275.538 244.3 245.914 270.448 249.29L277.765 250.235L277.748 250.172L320.996 255.306C352.504 259.047 380.944 236.193 384.074 204.619L387.912 165.899C390.646 163.769 392.399 160.483 392.399 156.795C392.399 150.375 387.085 145.17 380.529 145.17C375.106 145.17 370.532 148.732 369.114 153.598H292.69L294.902 139.475C297.176 124.962 286.828 111.485 272.197 110.171C262.825 109.33 253.684 108.611 249.818 108.611C243.74 108.611 224.106 110.387 211.184 111.623Z" fill="white"/>
</mask>
<g mask="url(#mask0)">
<g filter="url(#filter0_f)">
<path fill-rule="evenodd" clip-rule="evenodd" d="M143.679 440.189C205.14 454.379 260.235 443.049 266.738 414.883C273.241 386.717 228.688 352.382 167.227 338.192C105.766 324.003 50.6705 335.333 44.1679 363.499C37.6654 391.664 82.218 426 143.679 440.189Z" fill="#FF8F8C"/>
</g>
<mask id="mask1" mask-type="alpha" maskUnits="userSpaceOnUse" x="268" y="183" width="120" height="62">
<path d="M288.796 183.5C298.796 182.5 387.796 183.5 387.796 183.5C386.796 210 381.296 244 367.796 244C354.296 244 299.733 242 288.796 242C277.86 242 268.796 234.5 268.796 214C268.796 193.5 278.796 184.5 288.796 183.5Z" fill="#C4C4C4"/>
</mask>
<g mask="url(#mask1)">
<path d="M287.796 182.5C297.796 181.5 386.796 182.5 386.796 182.5C385.796 209 380.296 243 366.796 243C353.296 243 304.796 247 287.796 241C270.796 235 268.796 231 267.796 213C266.796 195 277.796 183.5 287.796 182.5Z" fill="#0E305B"/>
<ellipse cx="277.233" cy="240" rx="37.5" ry="23" fill="#FF7E78"/>
<rect x="264.733" y="181" width="125" height="33" fill="white"/>
</g>
</g>
<path fill-rule="evenodd" clip-rule="evenodd" d="M213.336 133.026C197.699 144.562 173.677 151.241 156.593 135.849C144.811 125.233 138.881 106.417 138.561 89.3592C153.549 80.5307 176.589 84.6715 194.23 100.566C204.685 109.987 211.236 121.727 213.336 133.026Z" fill="#FFACA8"/>
<path fill-rule="evenodd" clip-rule="evenodd" d="M196.801 128.513C194.334 121.934 189.214 114.62 182.063 108.18C169.997 97.316 156.058 92.4648 148.251 95.7833C150.306 105.403 155.838 116.626 163.896 123.882C175.581 134.403 188.911 133.282 196.801 128.513Z" fill="#FF7E78"/>
<path fill-rule="evenodd" clip-rule="evenodd" d="M225.179 110.623L309.62 5.07417C311.136 3.17934 314.137 4.8738 313.297 7.1504L275.122 110.623H225.179Z" fill="#8F7AE2"/>
<path fill-rule="evenodd" clip-rule="evenodd" d="M360.025 168.081C366.58 168.081 371.894 162.82 371.894 156.331C371.894 149.842 366.58 144.581 360.025 144.581C353.469 144.581 348.155 149.842 348.155 156.331C348.155 162.82 353.469 168.081 360.025 168.081Z" fill="#FFACA8"/>
<path fill-rule="evenodd" clip-rule="evenodd" d="M364.352 156.879C364.352 158.951 362.66 160.631 360.573 160.631C358.486 160.631 356.794 158.951 356.794 156.879C356.794 154.806 358.486 153.126 360.573 153.126C362.66 153.126 364.352 154.806 364.352 156.879ZM385.932 156.879C385.932 158.951 384.24 160.631 382.153 160.631C380.067 160.631 378.375 158.951 378.375 156.879C378.375 154.806 380.067 153.126 382.153 153.126C384.24 153.126 385.932 154.806 385.932 156.879Z" fill="#FF7E78"/>
<path fill-rule="evenodd" clip-rule="evenodd" d="M132.605 452C132.605 395.115 178.496 349 235.105 349C291.714 349 337.605 395.115 337.605 452C235.105 452 235.105 452 132.605 452Z" fill="#FFF9F8"/>
<path fill-rule="evenodd" clip-rule="evenodd" d="M9.20012 438.462C9.20012 373.57 61.7684 320.964 126.615 320.964C191.461 320.964 244.029 373.57 244.029 438.462C126.615 438.462 126.615 438.462 9.20012 438.462Z" fill="#FFF9F8"/>
<path d="M246.233 111.5L259.233 112.5L247.733 120.5L256.233 124.5L252.233 131" stroke="#FF7E78" stroke-width="2" stroke-linecap="round" stroke-linejoin="round"/>
<path d="M253.233 147C253.233 160.171 243.422 170.5 231.733 170.5C220.043 170.5 210.233 160.171 210.233 147C210.233 133.829 220.043 123.5 231.733 123.5C243.422 123.5 253.233 133.829 253.233 147Z" fill="white" stroke="#0E305B" stroke-width="5"/>
<path d="M307.233 147C307.233 160.33 297.951 170.5 287.233 170.5C276.514 170.5 267.233 160.33 267.233 147C267.233 133.67 276.514 123.5 287.233 123.5C297.951 123.5 307.233 133.67 307.233 147Z" fill="white" stroke="#0E305B" stroke-width="5"/>
<path d="M240.733 152C240.733 143.2 232.835 141 228.887 141C224.825 141 218.733 142.833 218.733 152" stroke="#0E305B" stroke-width="7.46667" stroke-linecap="round"/>
<path d="M297.733 152C297.733 143.2 289.835 141 285.887 141C281.825 141 275.733 142.833 275.733 152" stroke="#0E305B" stroke-width="7.46667" stroke-linecap="round"/>
<path d="M267.733 141C267.733 135.4 262.348 134 259.656 134C256.887 134 252.733 135.167 252.733 141" stroke="#0E305B" stroke-width="5" stroke-linecap="round"/>
<path d="M125.446 256.072C126.127 253.807 129.428 238.745 134.279 235.76C139.131 232.775 166.788 277.908 244.419 261.272C251.895 261.053 247.732 277.337 245.332 297.61C230.676 318.391 147.429 311.847 117.577 263.335C119.121 259.848 124.764 258.336 125.446 256.072Z" fill="#D85D57"/>
<path d="M198.76 430.421C158.775 388.492 161.086 324.224 193.352 296.643L240.544 293.318C241.637 330.698 300.345 362.952 300.345 362.952L278.393 384.994C278.393 384.994 241.759 365.563 216.391 296.418C190.566 339.525 243.36 415.2 241.636 417.645C239.912 420.09 201.206 432.146 198.76 430.421Z" fill="#D85D57"/>
<mask id="mask2" mask-type="alpha" maskUnits="userSpaceOnUse" x="111" y="200" width="190" height="231">
<path d="M125.446 256.072C126.127 253.807 129.428 238.745 134.279 235.76C139.131 232.775 166.788 277.908 244.419 261.272C251.895 261.053 247.732 277.337 245.332 297.61C230.676 318.391 147.429 311.847 117.577 263.335C119.121 259.848 124.764 258.336 125.446 256.072Z" fill="#D85D57"/>
<path d="M198.76 430.421C158.775 388.492 161.086 324.224 193.352 296.643L240.544 293.318C241.637 330.698 300.345 362.952 300.345 362.952L278.393 384.994C278.393 384.994 241.759 365.563 216.391 296.418C190.566 339.525 243.36 415.2 241.636 417.645C239.912 420.09 201.206 432.146 198.76 430.421Z" fill="#D85D57"/>
</mask>
<g mask="url(#mask2)">
<rect x="143.304" y="238.975" width="14.9586" height="41.884" transform="rotate(37.9111 143.304 238.975)" fill="#FFBD51"/>
<rect x="179.445" y="253.475" width="13.9567" height="53.029" transform="rotate(24.2271 179.445 253.475)" fill="#FFBD51"/>
<rect x="207.968" y="261.947" width="9.31309" height="53.029" transform="rotate(-4.31125 207.968 261.947)" fill="#FFBD51"/>
<rect x="241.56" y="240.67" width="14.9586" height="62.2991" transform="rotate(-0.585552 241.56 240.67)" fill="#FFBD51"/>
<rect x="153.025" y="355.662" width="14.9586" height="62.2991" transform="rotate(-91.2398 153.025 355.662)" fill="#FFBD51"/>
<rect x="186.677" y="422.121" width="14.9586" height="62.2991" transform="rotate(-107.278 186.677 422.121)" fill="#FFBD51"/>
<rect x="245.155" y="369.136" width="14.9586" height="62.2991" transform="rotate(-125.928 245.155 369.136)" fill="#FFBD51"/>
</g>
<line x1="560.892" y1="177.182" x2="438.787" y2="263.713" stroke="#0E305B" stroke-width="6" stroke-linecap="round" stroke-linejoin="round"/>
<path d="M442.864 262.831C443.76 264.502 443.359 266.573 441.905 267.79L402.676 300.596C400.885 302.094 398.196 301.745 396.846 299.84L391.942 292.919C390.624 291.059 391.125 288.475 393.043 287.242L436.183 259.506C438.147 258.244 440.769 258.924 441.872 260.981L442.864 262.831Z" fill="#0E305B"/>
<ellipse cx="446.325" cy="258.778" rx="3.09531" ry="6.11328" transform="rotate(144.68 446.325 258.778)" fill="#0E305B"/>
<ellipse cx="451.665" cy="254.778" rx="3.09531" ry="6.11328" transform="rotate(144.68 451.665 254.778)" fill="#0E305B"/>
</g>
<defs>
<filter id="filter0_f" x="-72.178" y="216.358" width="455.262" height="345.665" filterUnits="userSpaceOnUse" color-interpolation-filters="sRGB">
<feFlood flood-opacity="0" result="BackgroundImageFix"/>
<feBlend mode="normal" in="SourceGraphic" in2="BackgroundImageFix" result="shape"/>
<feGaussianBlur stdDeviation="57.8578" result="effect1_foregroundBlur"/>
</filter>
<linearGradient id="paint0_linear" x1="350.61" y1="197.226" x2="212.339" y2="283.627" gradientUnits="userSpaceOnUse">
<stop stop-color="#FFACA8"/>
<stop offset="1" stop-color="#FF8E8B"/>
</linearGradient>
<clipPath id="clip0">
<rect width="569" height="440" fill="white" transform="translate(0.60498)"/>
</clipPath>
</defs>
</svg>
