<svg width="64" height="72" viewBox="0 0 64 72" fill="none" xmlns="http://www.w3.org/2000/svg">
<path fill-rule="evenodd" clip-rule="evenodd" d="M10.6361 18.711C13.1569 17.2473 16.3802 18.1159 17.8356 20.6511L26.841 36.3381C28.2964 38.8733 27.4327 42.115 24.9119 43.5787C22.3911 45.0424 19.1678 44.1738 17.7124 41.6386L8.70698 25.9517C7.2516 23.4165 8.11529 20.1747 10.6361 18.711ZM61.3639 18.711C63.8847 20.1747 64.7484 23.4165 63.293 25.9517L48.1406 52.3464C46.6852 54.8816 43.4619 55.7502 40.9411 54.2865C38.4203 52.8228 37.5566 49.5811 39.012 47.0459L54.1644 20.6511C55.6198 18.1159 58.8431 17.2473 61.3639 18.711Z" fill="#FFACA8"/>
<path fill-rule="evenodd" clip-rule="evenodd" d="M25.8026 18.711C28.3234 17.2473 31.5467 18.1159 33.0021 20.6511L48.1545 47.0459C49.6099 49.5811 48.7462 52.8229 46.2254 54.2866C43.7046 55.7503 40.4813 54.8816 39.0259 52.3464L23.8735 25.9517C22.4181 23.4165 23.2818 20.1747 25.8026 18.711ZM43.6057 18C46.5159 18 48.8751 20.3731 48.8751 23.3005V23.303C48.8751 26.2304 46.5159 28.6035 43.6057 28.6035H43.6038C40.6935 28.6035 38.3343 26.2304 38.3343 23.303V23.3005C38.3343 20.3731 40.6935 18 43.6038 18H43.6057ZM28.3961 44.3965C31.3064 44.3965 33.6656 46.7696 33.6656 49.697V49.6995C33.6656 52.6269 31.3064 55 28.3961 55H28.3942C25.484 55 23.1248 52.6269 23.1248 49.6995V49.697C23.1248 46.7696 25.484 44.3965 28.3942 44.3965H28.3961Z" fill="#0E305B"/>
<mask id="mask0_595_682" style="mask-type:alpha" maskUnits="userSpaceOnUse" x="0" y="0" width="72" height="72">
<circle cx="36" cy="36" r="36" fill="white"/>
</mask>
<g mask="url(#mask0_595_682)">
<path d="M0 36C0 55.8823 16.1177 72 36 72V0C16.1177 0 0 16.1177 0 36Z" fill="#D0474B"/>
</g>
<path d="M29.0909 55H23.7216C21.7595 55 20.3542 54.4894 19.5057 53.4681C18.6572 52.4737 18.233 51.1433 18.233 49.477V47.9048C15.3958 47.3942 13.3144 45.9026 11.9886 43.43C10.6629 40.9574 10 37.6652 10 33.5532C10 31.2688 10.1989 29.2262 10.5966 27.4255C11.0208 25.598 11.6572 24.0661 12.5057 22.8298C13.3807 21.5935 14.4811 20.6529 15.8068 20.0078C17.1326 19.3359 18.697 19 20.5 19C24.1061 19 26.7576 20.2766 28.4545 22.8298C30.1515 25.383 31 28.9574 31 33.5532C31 37.6652 30.3371 40.9574 29.0114 43.43C27.6856 45.9026 25.6042 47.3942 22.767 47.9048V51.1702H29.0909V55ZM20.5 43.7928C21.428 43.7928 22.2102 43.6181 22.8466 43.2688C23.483 42.8925 23.9867 42.3684 24.358 41.6965C24.7557 41.0246 25.0341 40.2049 25.1932 39.2374C25.3788 38.243 25.4716 37.1411 25.4716 35.9317V31.1344C25.4716 28.7156 25.1004 26.8074 24.358 25.4099C23.642 24.0123 22.3561 23.3135 20.5 23.3135C18.6439 23.3135 17.3447 24.0123 16.6023 25.4099C15.8864 26.8074 15.5284 28.7156 15.5284 31.1344V35.972C15.5284 38.3908 15.8864 40.299 16.6023 41.6965C17.3447 43.0941 18.6439 43.7928 20.5 43.7928Z" fill="white"/>
</svg>
