<svg width="56" height="56" viewBox="0 0 56 56" fill="none" xmlns="http://www.w3.org/2000/svg">
<path fill-rule="evenodd" clip-rule="evenodd" d="M2.63609 10.711C5.15688 9.24732 8.38021 10.1159 9.8356 12.6511L18.841 28.3381C20.2964 30.8733 19.4327 34.115 16.9119 35.5787C14.3911 37.0424 11.1678 36.1738 9.71237 33.6386L0.706981 17.9517C-0.748402 15.4165 0.115287 12.1747 2.63609 10.711ZM53.3639 10.711C55.8847 12.1747 56.7484 15.4165 55.293 17.9517L40.1406 44.3464C38.6852 46.8816 35.4619 47.7502 32.9411 46.2865C30.4203 44.8228 29.5566 41.5811 31.012 39.0459L46.1644 12.6511C47.6198 10.1159 50.8431 9.24732 53.3639 10.711Z" fill="#FFACA8"/>
<path fill-rule="evenodd" clip-rule="evenodd" d="M17.8026 10.711C20.3234 9.24732 23.5467 10.1159 25.0021 12.6511L40.1545 39.0459C41.6099 41.5811 40.7462 44.8229 38.2254 46.2866C35.7046 47.7503 32.4813 46.8816 31.0259 44.3464L15.8735 17.9517C14.4181 15.4165 15.2818 12.1747 17.8026 10.711ZM35.6057 10C38.5159 10 40.8751 12.3731 40.8751 15.3005V15.303C40.8751 18.2304 38.5159 20.6035 35.6057 20.6035H35.6038C32.6935 20.6035 30.3343 18.2304 30.3343 15.303V15.3005C30.3343 12.3731 32.6935 10 35.6038 10H35.6057ZM20.3961 36.3965C23.3064 36.3965 25.6656 38.7696 25.6656 41.697V41.6995C25.6656 44.6269 23.3064 47 20.3961 47H20.3942C17.484 47 15.1248 44.6269 15.1248 41.6995V41.697C15.1248 38.7696 17.484 36.3965 20.3942 36.3965H20.3961Z" fill="#0E305B"/>
</svg>
